<?xml version="1.0" encoding="utf-8"?>
<!-- Generator: Adobe Illustrator 16.0.0, SVG Export Plug-In . SVG Version: 6.00 Build 0)  -->
<!DOCTYPE svg PUBLIC "-//W3C//DTD SVG 1.1//EN" "http://www.w3.org/Graphics/SVG/1.1/DTD/svg11.dtd">
<svg version="1.1" xmlns="http://www.w3.org/2000/svg" xmlns:xlink="http://www.w3.org/1999/xlink" x="0px" y="0px" width="539px"
	 height="182.66px" viewBox="0 0 539 182.66" enable-background="new 0 0 539 182.66" xml:space="preserve">
<g id="Layer_2">
	<polygon fill="#FFFFFF" points="28.475,101.164 29.706,159.964 89.119,179.113 91.039,81.334 	"/>
	<polyline fill="#FFFFFF" points="90.667,74.83 93,178.498 168.482,159.964 165.333,59.83 90.667,74.83 	"/>
</g>
<g id="Layer_1">
	<g>
		<polygon fill="#E5E5E6" points="7.461,22.226 90.08,5.526 112.053,38.926 29.436,55.187 		"/>
		<g>
			<g>
				<defs>
					<rect id="SVGID_1_" x="5.335" y="3.33" width="529.456" height="178.33"/>
				</defs>
				<clipPath id="SVGID_2_">
					<use xlink:href="#SVGID_1_"  overflow="visible"/>
				</clipPath>
				<polygon clip-path="url(#SVGID_2_)" fill="none" stroke="#434242" stroke-width="7.245" stroke-linejoin="round" points="
					7.461,22.226 90.08,5.526 112.053,38.926 29.436,55.187 				"/>
			</g>
		</g>
		<polygon fill="#E5E5E6" points="197.747,27.5 139.739,11.241 112.053,38.926 167.423,55.187 		"/>
		<g>
			<g>
				<defs>
					<rect id="SVGID_3_" x="5.335" y="3.33" width="529.456" height="178.33"/>
				</defs>
				<clipPath id="SVGID_4_">
					<use xlink:href="#SVGID_3_"  overflow="visible"/>
				</clipPath>
				<polygon clip-path="url(#SVGID_4_)" fill="none" stroke="#434242" stroke-width="7.245" stroke-linejoin="round" points="
					197.747,27.5 139.739,11.242 112.053,38.926 167.423,55.187 				"/>
			</g>
		</g>
		<g>
			<g>
				<defs>
					<polygon id="SVGID_5_" points="90.08,179.112 29.436,162.854 29.436,55.187 90.08,71.886 					"/>
				</defs>
				<clipPath id="SVGID_6_">
					<use xlink:href="#SVGID_5_"  overflow="visible"/>
				</clipPath>
				<g transform="matrix(1 0 0 1 1.907349e-006 0)" clip-path="url(#SVGID_6_)">
					
						<image overflow="visible" enable-background="new    " width="216" height="432" xlink:href="600D0A15.jpeg"  transform="matrix(0.2858 0 0 -0.2892 28.9409 179.6851)">
					</image>
				</g>
			</g>
		</g>
		<g>
			<g>
				<defs>
					<rect id="SVGID_7_" x="5.335" y="3.33" width="529.456" height="178.33"/>
				</defs>
				<clipPath id="SVGID_8_">
					<use xlink:href="#SVGID_7_"  overflow="visible"/>
				</clipPath>
				<polygon clip-path="url(#SVGID_8_)" fill="none" stroke="#434242" stroke-width="7.245" stroke-linejoin="round" points="
					90.08,179.112 29.436,162.854 29.436,55.187 90.08,71.886 				"/>
			</g>
		</g>
		<g>
			<g>
				<defs>
					<polygon id="SVGID_9_" points="90.08,179.112 167.423,162.854 167.423,55.187 90.08,71.886 					"/>
				</defs>
				<clipPath id="SVGID_10_">
					<use xlink:href="#SVGID_9_"  overflow="visible"/>
				</clipPath>
				<g clip-path="url(#SVGID_10_)">
					
						<image overflow="visible" enable-background="new    " width="274" height="432" xlink:href="600D0A17.jpeg"  transform="matrix(0.2891 0 0 -0.2892 89.2759 179.6851)">
					</image>
				</g>
			</g>
		</g>
		<g>
			<g>
				<defs>
					<rect id="SVGID_11_" x="5.335" y="3.33" width="529.456" height="178.33"/>
				</defs>
				<clipPath id="SVGID_12_">
					<use xlink:href="#SVGID_11_"  overflow="visible"/>
				</clipPath>
				<polygon clip-path="url(#SVGID_12_)" fill="none" stroke="#434242" stroke-width="7.245" stroke-linejoin="round" points="
					90.08,179.112 167.423,162.854 167.423,55.187 90.08,71.886 				"/>
			</g>
		</g>
		<polygon fill="#008BFF" points="101.142,148.942 156.252,138.397 156.252,149.419 101.142,159.964 		"/>
		<polygon fill="#E5E5E6" points="123.04,107.481 200.384,88.145 167.423,55.187 90.08,71.886 		"/>
		<polygon fill="none" stroke="#434242" stroke-width="7.245" stroke-linejoin="round" points="123.04,107.481 200.384,88.145 
			167.423,55.187 90.08,71.886 		"/>
		<polygon fill="#E5E5E6" points="79.093,115.832 18.448,93.857 29.436,55.187 90.08,71.886 		"/>
		<polygon fill="none" stroke="#434242" stroke-width="7.245" stroke-linejoin="round" points="79.093,115.832 18.448,93.857 
			29.436,55.187 90.08,71.886 		"/>
		<polygon fill="#4D4D4D" points="90.08,71.886 29.436,55.187 112.053,38.926 167.423,55.187 		"/>
		<polygon fill="none" stroke="#434242" stroke-width="7.245" stroke-linejoin="round" points="90.08,71.886 29.436,55.187 
			112.053,38.926 167.423,55.187 		"/>
		<path fill="#FFFFFF" d="M222.127,72.062l7.132-27.101l1.36,6.004l5.605,21.097h6.203l11.013-35.228h-5.805l-6.037,20.367
			l-2.023,6.8l-1.758-6.734l-5.274-20.433h-6.137L220.8,57.466c-1.128,4.467-1.736,6.889-1.825,7.264l-2.09-7.563l-5.606-20.334
			h-6.17l10.781,35.228L222.127,72.062L222.127,72.062z M282.632,72.062h6.236c-0.753-1.349-1.257-2.758-1.509-4.229
			c-0.256-1.471-0.383-4.981-0.383-10.532V49.34c0-2.654-0.1-4.489-0.297-5.507c-0.354-1.636-0.976-2.99-1.859-4.063
			c-0.885-1.073-2.268-1.962-4.146-2.67c-1.881-0.708-4.325-1.061-7.332-1.061c-3.03,0-5.694,0.415-7.994,1.243
			c-2.301,0.83-4.059,2.013-5.274,3.549c-1.217,1.538-2.09,3.555-2.62,6.054l5.838,0.796c0.641-2.5,1.631-4.241,2.969-5.225
			c1.338-0.984,3.411-1.476,6.22-1.476c3.007,0,5.272,0.675,6.801,2.023c1.128,0.995,1.689,2.709,1.689,5.141
			c0,0.221-0.011,0.742-0.031,1.559c-2.278,0.796-5.827,1.482-10.648,2.057c-2.366,0.288-4.136,0.586-5.308,0.896
			c-1.592,0.443-3.024,1.095-4.296,1.957c-1.271,0.863-2.3,2.007-3.085,3.434c-0.785,1.427-1.178,3.002-1.178,4.727
			c0,2.941,1.039,5.357,3.119,7.249c2.078,1.891,5.053,2.836,8.923,2.836c2.343,0,4.539-0.387,6.585-1.161
			c2.045-0.774,4.174-2.101,6.385-3.98C281.615,69.375,282.014,70.824,282.632,72.062L282.632,72.062L282.632,72.062z
			 M280.941,56.57c0,2.633-0.321,4.623-0.963,5.971c-0.842,1.748-2.156,3.124-3.946,4.13c-1.792,1.006-3.839,1.509-6.138,1.509
			c-2.321,0-4.086-0.531-5.291-1.592s-1.808-2.388-1.808-3.98c0-1.039,0.276-1.985,0.829-2.836c0.553-0.851,1.338-1.498,2.355-1.94
			s2.754-0.84,5.208-1.195c4.334-0.618,7.584-1.371,9.754-2.255V56.57L280.941,56.57z M302.137,72.062V53.619
			c0-2.521,0.332-4.843,0.996-6.966c0.441-1.393,1.183-2.482,2.221-3.267c1.041-0.785,2.211-1.178,3.518-1.178
			c1.459,0,2.918,0.431,4.379,1.294l2.057-5.54c-2.08-1.282-4.125-1.923-6.137-1.923c-1.393,0-2.67,0.397-3.832,1.194
			c-1.16,0.796-2.428,2.443-3.799,4.942v-5.34h-5.373v35.228L302.137,72.062L302.137,72.062z M339.289,66.224
			c-1.549,1.15-3.416,1.725-5.605,1.725c-2.94,0-5.396-1.028-7.364-3.085c-1.97-2.056-3.063-5.021-3.283-8.89h26.271
			c0.021-0.708,0.033-1.239,0.033-1.592c0-5.816-1.492-10.327-4.479-13.534c-2.984-3.207-6.832-4.81-11.543-4.81
			c-4.865,0-8.824,1.637-11.875,4.909c-3.054,3.272-4.578,7.874-4.578,13.799c0,5.728,1.51,10.179,4.526,13.352
			c3.021,3.174,7.105,4.76,12.259,4.76c4.09,0,7.45-0.995,10.084-2.986c2.631-1.99,4.434-4.787,5.405-8.392l-6.17-0.763
			C342.064,63.238,340.836,65.074,339.289,66.224L339.289,66.224z M326.469,43.7c1.867-1.835,4.174-2.753,6.916-2.753
			c3.029,0,5.494,1.15,7.396,3.45c1.237,1.481,1.989,3.704,2.256,6.667h-19.67C323.566,47.991,324.6,45.537,326.469,43.7
			L326.469,43.7z M362.609,72.062V52.789c0-2.764,0.332-4.931,0.993-6.501c0.664-1.57,1.775-2.814,3.335-3.732
			c1.559-0.917,3.223-1.376,4.991-1.376c2.367,0,4.197,0.68,5.49,2.04c1.295,1.36,1.939,3.533,1.939,6.518v22.325h5.973V49.737
			c0-3.45-0.416-6.081-1.244-7.895c-0.83-1.813-2.207-3.234-4.131-4.263c-1.924-1.029-4.191-1.542-6.801-1.542
			c-4.246,0-7.761,1.614-10.547,4.843V23.433h-5.974v48.629H362.609L362.609,72.062z M396.758,68.114
			c3.041,3.163,7.027,4.744,11.959,4.744c3.072,0,5.908-0.719,8.508-2.156c2.601-1.438,4.578-3.455,5.938-6.054
			c1.361-2.599,2.041-6.165,2.041-10.698c0-5.594-1.537-9.979-4.611-13.152c-3.074-3.173-7.031-4.76-11.875-4.76
			c-4.356,0-8.049,1.305-11.078,3.914c-3.629,3.14-5.44,7.973-5.44,14.496C392.197,60.397,393.717,64.952,396.758,68.114
			L396.758,68.114z M401.287,44.331c1.967-2.233,4.445-3.35,7.43-3.35c2.941,0,5.4,1.123,7.381,3.367
			c1.979,2.245,2.97,5.545,2.97,9.901c0,4.623-0.984,8.061-2.953,10.316c-1.97,2.255-4.435,3.384-7.396,3.384
			c-2.983,0-5.463-1.123-7.43-3.367c-1.969-2.244-2.953-5.622-2.953-10.134C398.334,49.937,399.318,46.564,401.287,44.331
			L401.287,44.331z M460.631,72.062V36.834h-5.973v18.875c0,3.008-0.326,5.302-0.978,6.883c-0.653,1.582-1.766,2.831-3.334,3.749
			c-1.571,0.917-3.252,1.376-5.043,1.376s-3.295-0.448-4.51-1.343c-1.217-0.896-2.014-2.128-2.391-3.699
			c-0.244-1.083-0.363-3.185-0.363-6.303V36.834h-5.971V58.66c0,2.543,0.121,4.401,0.364,5.573c0.353,1.747,0.966,3.223,1.841,4.428
			c0.872,1.206,2.211,2.206,4.014,3.002s3.744,1.194,5.822,1.194c4.711,0,8.436-1.99,11.178-5.971v5.175L460.631,72.062
			L460.631,72.062z M472.189,70.005c2.399,1.902,5.891,2.853,10.467,2.853c2.764,0,5.24-0.481,7.43-1.443
			c2.19-0.962,3.865-2.322,5.025-4.08c1.162-1.758,1.741-3.632,1.741-5.623c0-2.034-0.477-3.737-1.426-5.108
			c-0.951-1.371-2.262-2.416-3.932-3.135c-1.67-0.718-4.617-1.642-8.84-2.77c-2.92-0.796-4.679-1.304-5.273-1.526
			c-1.041-0.419-1.805-0.95-2.289-1.592c-0.485-0.619-0.729-1.315-0.729-2.09c0-1.216,0.586-2.277,1.758-3.184
			c1.172-0.907,3.129-1.36,5.871-1.36c2.322,0,4.117,0.509,5.391,1.526c1.271,1.018,2.041,2.434,2.308,4.246l5.838-0.796
			c-0.377-2.277-1.063-4.096-2.058-5.457c-0.996-1.359-2.539-2.438-4.629-3.234s-4.518-1.194-7.281-1.194
			c-1.836,0-3.555,0.238-5.155,0.713c-1.605,0.476-2.869,1.057-3.8,1.741c-1.239,0.885-2.219,1.996-2.936,3.334
			c-0.721,1.338-1.078,2.792-1.078,4.362c0,1.725,0.437,3.301,1.312,4.727c0.873,1.427,2.155,2.543,3.846,3.35
			c1.693,0.808,4.729,1.764,9.106,2.87c3.25,0.818,5.283,1.493,6.104,2.023c1.172,0.775,1.758,1.836,1.758,3.185
			c0,1.504-0.664,2.815-1.99,3.931c-1.327,1.117-3.36,1.675-6.104,1.675c-2.719,0-4.84-0.63-6.353-1.891
			c-1.516-1.261-2.438-3.074-2.771-5.44l-5.904,0.928C468.26,65.284,469.789,68.103,472.189,70.005L472.189,70.005z M524.387,66.224
			c-1.551,1.15-3.418,1.725-5.606,1.725c-2.941,0-5.396-1.028-7.363-3.085c-1.969-2.056-3.063-5.021-3.285-8.89h26.273
			c0.021-0.708,0.033-1.239,0.033-1.592c0-5.816-1.494-10.327-4.479-13.534c-2.986-3.207-6.834-4.81-11.545-4.81
			c-4.865,0-8.824,1.637-11.875,4.909s-4.576,7.874-4.576,13.799c0,5.728,1.508,10.179,4.527,13.352
			c3.018,3.174,7.104,4.76,12.256,4.76c4.09,0,7.453-0.995,10.086-2.986c2.629-1.99,4.432-4.787,5.404-8.392l-6.168-0.763
			C527.16,63.238,525.934,65.074,524.387,66.224L524.387,66.224z M511.564,43.7c1.868-1.835,4.174-2.753,6.916-2.753
			c3.028,0,5.495,1.15,7.397,3.45c1.236,1.481,1.99,3.704,2.256,6.667h-19.672C508.662,47.991,509.695,45.537,511.564,43.7
			L511.564,43.7z"/>
		<path fill="#FFFFFF" d="M249.928,98.798c-3.437-2.506-8.066-3.758-13.889-3.758c-7.113,0-12.755,2.199-16.927,6.594
			c-4.172,4.398-6.258,10.544-6.258,18.437c0,7.804,2.078,13.911,6.235,18.322c4.157,4.412,9.731,6.618,16.724,6.618
			c6.152,0,11.06-1.455,14.721-4.367c3.661-2.91,6.138-7.217,7.428-12.92l-12.425-2.115c-0.63,3.331-1.71,5.682-3.241,7.045
			c-1.531,1.366-3.497,2.049-5.897,2.049c-3.211,0-5.77-1.17-7.676-3.512c-1.906-2.342-2.858-6.348-2.858-12.02
			c0-5.102,0.938-8.741,2.813-10.918c1.875-2.174,4.389-3.264,7.54-3.264c2.371,0,4.3,0.631,5.785,1.891
			c1.486,1.261,2.438,3.138,2.859,5.627l12.47-2.25C255.833,105.125,253.364,101.305,249.928,98.798L249.928,98.798z
			 M279.438,106.046c1.26-0.885,3.017-1.328,5.268-1.328c3.331,0,5.597,0.518,6.798,1.554c1.2,1.035,1.802,2.769,1.802,5.199v1.261
			c-2.281,0.96-6.379,1.996-12.289,3.105c-4.385,0.842-7.738,1.824-10.063,2.949c-2.326,1.125-4.135,2.746-5.425,4.862
			c-1.291,2.116-1.937,4.524-1.937,7.226c0,4.084,1.419,7.459,4.255,10.129c2.836,2.672,6.713,4.008,11.637,4.008
			c2.791,0,5.416-0.524,7.879-1.576c2.459-1.049,4.771-2.625,6.933-4.727c0.09,0.24,0.24,0.735,0.45,1.484
			c0.48,1.652,0.885,2.896,1.215,3.737h12.516c-1.11-2.281-1.868-4.419-2.272-6.415c-0.405-1.995-0.608-5.096-0.608-9.297
			l0.135-14.766c0-5.494-0.563-9.267-1.688-11.322c-1.125-2.055-3.068-3.75-5.83-5.088c-2.761-1.334-6.962-2.002-12.604-2.002
			c-6.213,0-10.896,1.11-14.047,3.33c-3.15,2.223-5.373,5.644-6.663,10.264l11.479,2.072
			C277.157,108.486,278.176,106.933,279.438,106.046L279.438,106.046z M293.303,123.492c0,3.03-0.164,5.086-0.496,6.168
			c-0.479,1.65-1.483,3.045-3.016,4.187c-2.07,1.501-4.248,2.25-6.527,2.25c-2.041,0-3.723-0.644-5.041-1.937
			c-1.322-1.289-1.98-2.82-1.98-4.592c0-1.801,0.824-3.285,2.476-4.457c1.079-0.72,3.376-1.453,6.888-2.206
			c3.512-0.75,6.078-1.396,7.699-1.937v2.523H293.303z M331.479,96.121V79.238l-12.694,7.383v9.5h-5.808v10.082h5.808v20.844
			c0,4.473,0.135,7.443,0.406,8.914c0.327,2.07,0.922,3.713,1.776,4.93c0.855,1.216,2.197,2.205,4.029,2.972
			c1.83,0.765,3.885,1.147,6.168,1.147c3.721,0,7.051-0.631,9.992-1.891l-1.08-9.813c-2.221,0.81-3.916,1.215-5.086,1.215
			c-0.84,0-1.553-0.21-2.14-0.63c-0.584-0.42-0.961-0.953-1.125-1.6c-0.166-0.645-0.247-2.918-0.247-6.819v-19.269h8.645V96.121
			H331.479L331.479,96.121z M361.416,106.046c1.26-0.885,3.016-1.328,5.268-1.328c3.332,0,5.597,0.518,6.798,1.554
			c1.2,1.035,1.801,2.769,1.801,5.199v1.261c-2.281,0.96-6.377,1.996-12.289,3.105c-4.383,0.842-7.738,1.824-10.063,2.949
			c-2.326,1.125-4.135,2.746-5.424,4.862c-1.293,2.116-1.938,4.524-1.938,7.226c0,4.084,1.418,7.459,4.256,10.129
			c2.836,2.672,6.715,4.008,11.637,4.008c2.791,0,5.418-0.524,7.879-1.576c2.459-1.049,4.771-2.625,6.933-4.727
			c0.09,0.24,0.239,0.735,0.45,1.484c0.479,1.652,0.886,2.896,1.215,3.737h12.515c-1.109-2.281-1.867-4.419-2.271-6.415
			c-0.405-1.995-0.608-5.096-0.608-9.297l0.135-14.766c0-5.494-0.563-9.267-1.688-11.322c-1.125-2.055-3.067-3.75-5.829-5.088
			c-2.761-1.334-6.961-2.002-12.604-2.002c-6.213,0-10.896,1.11-14.047,3.33c-3.15,2.223-5.371,5.644-6.662,10.264l11.479,2.072
			C359.135,108.486,360.154,106.933,361.416,106.046L361.416,106.046z M375.281,123.492c0,3.03-0.164,5.086-0.496,6.168
			c-0.479,1.65-1.484,3.045-3.017,4.187c-2.069,1.501-4.245,2.25-6.526,2.25c-2.041,0-3.724-0.644-5.041-1.937
			c-1.32-1.289-1.982-2.82-1.982-4.592c0-1.801,0.826-3.285,2.478-4.457c1.08-0.72,3.377-1.453,6.889-2.206
			c3.512-0.75,6.078-1.396,7.697-1.937L375.281,123.492L375.281,123.492z M412.826,143.93V77.933h-12.648v65.997H412.826
			L412.826,143.93z M425.973,133.328c2.07,3.825,5.095,6.729,9.07,8.711c3.977,1.98,8.154,2.971,12.537,2.971
			c7.084,0,12.959-2.377,17.625-7.135c4.666-4.756,7-10.75,7-17.984c0-7.172-2.312-13.107-6.932-17.805
			c-4.621-4.696-10.55-7.045-17.783-7.045c-4.683,0-8.92,1.035-12.717,3.105c-3.798,2.07-6.73,5.073-8.802,9.004
			c-2.069,3.932-3.106,7.999-3.106,12.2C422.865,124.841,423.902,129.501,425.973,133.328L425.973,133.328z M439.207,109.13
			c2.252-2.521,5.027-3.781,8.328-3.781c3.303,0,6.07,1.26,8.307,3.781c2.237,2.521,3.354,6.123,3.354,10.804
			c0,4.803-1.117,8.464-3.354,10.983c-2.235,2.521-5.004,3.783-8.307,3.783c-3.301,0-6.076-1.262-8.328-3.783
			c-2.25-2.521-3.377-6.15-3.377-10.894C435.83,115.285,436.957,111.651,439.207,109.13L439.207,109.13z M480.895,148.611
			c0,4.262,1.695,7.781,5.089,10.559c3.391,2.774,9.139,4.162,17.241,4.162c4.291,0,7.841-0.449,10.646-1.351
			c2.805-0.899,5.049-2.146,6.729-3.735c1.683-1.592,2.986-3.781,3.918-6.572c0.931-2.793,1.396-7.008,1.396-12.65V96.121h-11.84
			v6.707c-3.842-5.19-8.719-7.787-14.631-7.787c-5.732,0-10.527,2.115-14.384,6.348c-3.854,4.23-5.784,10.354-5.784,18.367
			c0,6.393,1.471,11.736,4.411,16.027c3.75,5.432,8.839,8.147,15.263,8.147c5.762,0,10.533-2.58,14.315-7.743v6.979
			c0,2.819-0.196,4.756-0.586,5.808c-0.569,1.471-1.412,2.536-2.521,3.196c-1.65,0.99-4.127,1.484-7.428,1.484
			c-2.582,0-4.474-0.449-5.673-1.351c-0.871-0.63-1.426-1.785-1.666-3.466l-14.45-1.758
			C480.908,147.682,480.895,148.191,480.895,148.611L480.895,148.611L480.895,148.611z M495.188,108.251
			c1.966-2.354,4.466-3.533,7.496-3.533c3.121,0,5.701,1.201,7.742,3.602c2.041,2.401,3.063,6.077,3.063,11.029
			c0,4.742-1.066,8.32-3.197,10.736s-4.742,3.625-7.832,3.625c-2.883,0-5.307-1.178-7.271-3.535
			c-1.966-2.354-2.947-6.068-2.947-11.143C492.24,114.203,493.223,110.608,495.188,108.251L495.188,108.251z"/>
	</g>
</g>
</svg>
