<?xml version="1.0" encoding="utf-8"?>
<!-- Generator: Adobe Illustrator 16.0.0, SVG Export Plug-In . SVG Version: 6.00 Build 0)  -->
<!DOCTYPE svg PUBLIC "-//W3C//DTD SVG 1.1//EN" "http://www.w3.org/Graphics/SVG/1.1/DTD/svg11.dtd">
<svg version="1.1" id="Layer_1" xmlns="http://www.w3.org/2000/svg" xmlns:xlink="http://www.w3.org/1999/xlink" x="0px" y="0px"
	 width="512px" height="512px" viewBox="0 0 512 512" enable-background="new 0 0 512 512" xml:space="preserve">
<g transform="translate(0.000000,512.000000) scale(0.100000,-0.100000)">
	<path fill="#FFFFFF" d="M1052.998,5105C858.999,5062.998,687.002,4907.998,620,4715l-25-70l-2.998-2052.002
		c-3.003-2250.996-6.001-2125,56.997-2255C716.001,197.002,852.002,77.998,1000,30l75-25h1485h1485l75,25
		c147.998,47.998,284.004,167.002,350.996,307.998c57.002,119.004,59.004,147.998,57.002,736.006l-2.998,535l-190-165L4145,1280
		l-5-367.998c-5-332.998-7.002-370-24.004-405C4090,454.004,4035,412.998,3975.996,400c-35-7.002-500.996-9.004-1445.996-7.998
		C1141.001,395,1135,395,1096.001,415.996c-57.002,29.004-93.999,80-106.001,143.008c-13.999,73.994-13.999,3927.998,0,4001.997
		c12.002,62.998,48.999,113.999,106.001,142.998C1135,4725,1141.001,4725,2530,4727.998c945,1.001,1410.996-0.996,1445.996-7.998
		c59.004-12.998,114.004-53.999,140-107.002c17.002-35,19.004-71.997,24.004-405l5-366.997l190-163.999l190-165l2.998,533.999
		c2.002,587.998,0,616.997-57.002,736.001C4405,4920,4272.002,5038.999,4125,5090l-70,25l-1470,2.002
		C1377.998,5117.998,1103.999,5116,1052.998,5105z"/>
	<path fill="#FFFFFF" d="M3230.996,3832.001c-20.996-10-42.998-33.003-55-57.002c-20-37.002-20.996-60-23.994-332.002L3147.998,3150
		h-611.997h-613.003l-43.999-22.998C1850,3111.001,1825,3087.002,1805,3055l-30-47.998V2560v-447.002l30-47.998
		c20-32.002,45-55.996,73.999-72.002l43.999-22.998h613.003h611.997l4.004-287.002c2.998-275.996,3.994-290,25.996-330
		c27.002-50.996,65-72.998,126.006-72.998h43.994l734.004,635.996C4485,2265,4815,2555,4815,2560
		c0,11.001-1457.998,1275-1480,1283.999C3305.996,3855,3265.996,3850,3230.996,3832.001z"/>
</g>
</svg>
