<?xml version="1.0" encoding="utf-8"?>
<!-- Generator: Adobe Illustrator 16.0.0, SVG Export Plug-In . SVG Version: 6.00 Build 0)  -->
<!DOCTYPE svg PUBLIC "-//W3C//DTD SVG 1.1//EN" "http://www.w3.org/Graphics/SVG/1.1/DTD/svg11.dtd">
<svg version="1.1" id="Layer_1" xmlns="http://www.w3.org/2000/svg" xmlns:xlink="http://www.w3.org/1999/xlink" x="0px" y="0px"
	 width="512px" height="512px" viewBox="0 0 512 512" enable-background="new 0 0 512 512" xml:space="preserve">
<g transform="translate(0.000000,512.000000) scale(0.100000,-0.100000)">
	<path fill="#FFFFFF" d="M1675,3931c-16.001-3.999-38.999-13.003-51.001-18.999C1592.002,3895,467.002,3110,447.998,3091.001
		c-23.999-23.003-425.996-833.003-440-886.997c-10-38.008-8.999-52.002,6.001-99.004C35,2044.004,65,2012.002,127.002,1985
		c53.999-22.998,115-15.996,200,25L390,2039.004V1125c0-597.998,3.999-930.996,10-962.998c12.998-60,60-117.998,113.999-142.998
		C552.998,0.996,617.998,0,2070,0h1515.996L3630,22.002c37.998,20,105.996,98.994,442.002,517.998c218.994,272.002,410,515,425,540
		l27.998,45l2.998,480l2.998,480l283.008,285c263.994,266.001,283.994,287.998,295,333.999c6.992,27.002,8.994,67.002,5.996,88.003
		c-5,25.996-112.002,215-317.002,555.996c-170,284.004-317.002,525-325,534.004c-7.998,8.999-35,25.996-58.994,36.997
		c-44.004,21.001-50,21.001-1376.006,20C2305,3937.998,1692.002,3935,1675,3931z M3650,3345l-195-195l-1116.001,2.002L1222.998,3155
		l276.001,192.998L1775,3540h1035h1035L3650,3345z M3347.998,1572.998L3345,395l-1277.002-2.998L790,390v1180v1180h1280h1280
		L3347.998,1572.998z"/>
	<path fill="#FFFFFF" d="M1530,2552.998c-40-7.002-101.001-55-122.998-95c-53.003-103.994-18.003-217.002,83.999-267.998
		c36.997-19.004,61.997-20,575-20c521.997,0,538.999,0.996,579.995,20.996c63.008,30,97.002,80,102.002,150
		c2.002,31.006-0.996,73.008-7.002,92.002c-15,45-77.998,102.998-127.998,116.006C2577.002,2558.999,1590,2562.998,1530,2552.998z"
		/>
</g>
</svg>
