<?xml version="1.0" encoding="utf-8"?>
<!-- Generator: Adobe Illustrator 16.0.0, SVG Export Plug-In . SVG Version: 6.00 Build 0)  -->
<!DOCTYPE svg PUBLIC "-//W3C//DTD SVG 1.1//EN" "http://www.w3.org/Graphics/SVG/1.1/DTD/svg11.dtd">
<svg version="1.1" id="Layer_1" xmlns="http://www.w3.org/2000/svg" xmlns:xlink="http://www.w3.org/1999/xlink" x="0px" y="0px"
	 width="500px" height="500px" viewBox="0 0 500 500" enable-background="new 0 0 500 500" xml:space="preserve">
<path fill="#FFFFFF" d="M431.711,368.112c20.078,0,36.34-16.268,36.34-36.343V104.632c0-20.079-16.262-36.343-36.34-36.343H231.83
	c-20.079,0-36.343,16.264-36.343,36.343v36.342h-55.24c-12.173,0-22.98,4.818-30.806,12.536l-45.959,46.155
	c-8.269,8.18-13.362,19.625-13.362,32.164v91.306c-10.362,2.094-18.17,11.27-18.17,22.26c0,12.537,10.177,22.718,22.713,22.718
	H86.64c2.272,35.525,31.887,63.599,67.962,63.599c36.077,0,65.693-28.072,67.964-63.599h63.868
	c2.356,35.525,31.977,63.599,68.049,63.599c36.069,0,65.692-28.072,67.964-63.599H431.711L431.711,368.112z M177.317,363.569
	c0,12.534-10.177,22.715-22.715,22.715c-12.536,0-22.713-10.181-22.713-22.715c0-12.537,10.177-22.718,22.713-22.718
	C167.14,340.853,177.317,351.032,177.317,363.569z M377.198,363.569c0,12.534-10.181,22.715-22.716,22.715
	c-12.537,0-22.711-10.181-22.711-22.715c0-12.537,10.174-22.718,22.711-22.718C367.018,340.852,377.198,351.032,377.198,363.569z
	 M95.548,259.086v-22.98c0-9.086,3.637-13.362,10.45-20.176l19.529-19.537c6.184-6.176,10.905-9.992,19.813-9.992h50.146v72.685
	H95.548z"/>
</svg>
