<?xml version="1.0" encoding="utf-8"?>
<!-- Generator: Adobe Illustrator 16.0.0, SVG Export Plug-In . SVG Version: 6.00 Build 0)  -->
<!DOCTYPE svg PUBLIC "-//W3C//DTD SVG 1.1//EN" "http://www.w3.org/Graphics/SVG/1.1/DTD/svg11.dtd">
<svg version="1.1"
	 id="svg6584" xmlns:dc="http://purl.org/dc/elements/1.1/" xmlns:rdf="http://www.w3.org/1999/02/22-rdf-syntax-ns#" xmlns:svg="http://www.w3.org/2000/svg" xmlns:cc="http://creativecommons.org/ns#"
	 xmlns="http://www.w3.org/2000/svg" xmlns:xlink="http://www.w3.org/1999/xlink" x="0px" y="0px" width="100px" height="100px"
	 viewBox="0 0 100 100" enable-background="new 0 0 100 100" xml:space="preserve">
<g id="layer1" transform="translate(0,-952.362)">
	<path id="path4181" fill="#262F35" d="M45.834,968.195L6.25,991.112h8.333v4.167v24.998v4.168c0,2.082,1.858,4.166,4.167,4.166
		h12.5v-20.832c0-2.309,1.858-4.166,4.167-4.166h29.167c2.309,0,4.094,1.859,4.166,4.166v20.832h12.5
		c2.309,0,4.166-1.857,4.166-4.166v-4.168v-24.998v-4.167h8.334l-39.584-22.917c-1.779-1.031-3.533-2.081-4.166-2.083
		C49.368,966.11,47.642,967.148,45.834,968.195L45.834,968.195z M35.417,1007.778v4.166h29.167v-4.166H35.417z M35.417,1016.11
		v4.166h29.167v-4.166H35.417z M35.417,1024.444v4.166h29.167v-4.166H35.417z"/>
</g>
</svg>
